# xmcd
#
# Track frame offsets:
#	150
#	12847
#	31910
#	47760
#	72820
#	89327
#	102792
#	115147
#	130095
#	147825
#	166105
#
# Disc length: 2344 seconds
#
# Revision: 0
# Processed by: cddbd v1.5.2PL0 Copyright (c) Steve Scherf et al.
# Submitted via: EasyCDDAExtractor 16.0.6.1
#
DISCID=8409260b
DTITLE=Ξυλούρης Νίκος - Ριζίτικα-1971, Ν. Ξυλούρης
DYEAR=2005
DGENRE=Κρητική
TTITLE0=Ξυλούρης Νίκος-χορωδία - Πότε θα κάνει ξαστεριά [Γ. Μαρκόπουλου-Ν. Ξυλ
TTITLE0=ούρη]
TTITLE1=Ξυλούρης Νίκος - Ήντά 'χετε γυρού γυρού [Γ. Μαρκόπουλου-Ν. Ξυλούρη]
TTITLE2=Ξυλούρης Νίκος-χορωδία - Αγρίμια και αγριμάκια μου [Γ. Μαρκόπουλου-Ν. 
TTITLE2=Ξυλούρη]
TTITLE3=Ξυλούρης Νίκος - Μάννα κι αν έρθουν οι φίλοι μου [Γ. Μαρκόπουλου-Ν. Ξυ
TTITLE3=λούρη]
TTITLE4=Άνευ ερμηνευτού - Ο χορός του Σήφακα [ορχηστρικό]
TTITLE5=Ξυλούρης Νίκος - Από την άκρη των ακριών [Γ. Μαρκόπουλου-Ν. Ξυλούρη]
TTITLE6=Ξυλούρης Νίκος - Κόσμε χρυσέ
TTITLE7=Ξυλούρης Νίκος-χορωδία - Σε ψηλό βουνό (Ο αητός)
TTITLE8=Ξυλούρης Νίκος-χορωδία - Ο Διγενής
TTITLE9=Ξυλούρης Νίκος - Τον πλούσιο Γιώργη ηύβρηκα
TTITLE10=Άνευ ερμηνευτού - Μαδάρα [ορχηστρικό]
EXTD=Ellinikoi Xaraktires\n
EXTT0=
EXTT1=
EXTT2=
EXTT3=
EXTT4=
EXTT5=
EXTT6=
EXTT7=
EXTT8=
EXTT9=
EXTT10=
PLAYORDER=
